#N canvas 570 250 541 421 14;
#X obj 30 50 inlet peak;
#X obj 310 80 inlet attack;
#X obj 420 80 inlet decay;
#X obj 30 80 route float bang a d z;
#X obj 220 80 unpak 1 2;
#X obj 250 160 route float;
#X obj 350 160 route float;
#X obj 40 110 1;
#X obj 40 140 moses;
#X obj 40 170 * -1;
#X msg 40 270 0;
#X obj 100 140 `f \$5!;
#X obj 100 170 sel;
#X msg 160 200 \$1;
#X obj 40 300 pack 0 10;
#X obj 50 200 pipe 10;
#X obj 80 230 t b f;
#X obj 130 300 pack 0 \$1;
#X obj 230 270 del \$1;
#X obj 230 300 pack 0 \$2;
#X obj 130 340 vline~;
#X obj 130 370 outlet~;
#X text 260 50 attack-decay;
#X obj 300 20 cnv 15 32 22 empty empty ad 2 10 0 16 -1 -262144 0;
#X connect 0 0 3 0;
#X connect 1 0 5 0;
#X connect 2 0 6 0;
#X connect 3 0 7 0;
#X connect 3 1 7 0;
#X connect 3 2 5 0;
#X connect 3 3 6 0;
#X connect 3 4 13 0;
#X connect 3 5 4 0;
#X connect 4 0 5 0;
#X connect 4 1 6 0;
#X connect 5 0 17 1;
#X connect 5 0 18 1;
#X connect 6 0 19 1;
#X connect 7 0 8 0;
#X connect 8 0 9 0;
#X connect 8 1 16 0;
#X connect 9 0 15 0;
#X connect 9 0 10 0;
#X connect 10 0 14 0;
#X connect 11 0 12 0;
#X connect 12 1 13 0;
#X connect 13 0 14 1;
#X connect 13 0 15 1;
#X connect 14 0 20 0;
#X connect 15 0 16 0;
#X connect 16 0 18 0;
#X connect 16 1 17 0;
#X connect 17 0 20 0;
#X connect 18 0 19 0;
#X connect 19 0 20 0;
#X connect 20 0 21 0;
