#N canvas 700 130 731 531 14;
#X obj 30 40 inlet peak;
#X obj 400 70 inlet attack;
#X obj 510 70 inlet decay;
#X obj 540 100 inlet sustain;
#X obj 580 130 inlet release;
#X obj 30 70 route float bang a d #s s r z;
#X obj 280 70 unpak 1 2 3 4;
#X obj 250 160 route float;
#X obj 350 160 route float;
#X obj 450 160 route float;
#X obj 550 160 route float;
#X obj 50 100 1;
#X obj 50 130 sel;
#X obj 70 210 moses;
#X obj 70 240 * -1;
#X msg 70 310 0;
#X obj 100 180 `f \$5!;
#X obj 120 210 sel;
#X msg 230 280 \$1;
#X obj 140 370 pack 0 10;
#X obj 80 270 pipe 10;
#X obj 120 310 t b f;
#X obj 230 370 pack 0 \$1;
#X obj 170 210 del \$1;
#X obj 320 300 f \$3;
#X obj 320 330 * 0.01;
#X obj 320 370 *;
#X obj 320 400 pack 0 \$2;
#X msg 170 180 stop;
#X obj 50 370 pack 0 \$4;
#X obj 230 430 vline~;
#X obj 230 460 outlet~;
#X text 280 50 list/anything;
#X text 240 200 on attack \, set a;
#X text 240 220 delay for sustain;
#X text 370 300 recall sustain value;
#X text 380 330 convert from percent;
#X text 390 370 multiply by peak level;
#X text 410 400 pack with decay time;
#X obj 170 30 cnv 15 52 22 empty empty adsr 2 10 0 16 -1 -262144 0
;
#X connect 0 0 5 0;
#X connect 1 0 7 0;
#X connect 2 0 8 0;
#X connect 3 0 9 0;
#X connect 4 0 10 0;
#X connect 5 0 11 0;
#X connect 5 1 11 0;
#X connect 5 2 7 0;
#X connect 5 3 8 0;
#X connect 5 4 24 0;
#X connect 5 5 9 0;
#X connect 5 6 10 0;
#X connect 5 7 18 0;
#X connect 5 8 6 0;
#X connect 6 0 7 0;
#X connect 6 1 8 0;
#X connect 6 2 9 0;
#X connect 6 3 10 0;
#X connect 7 0 23 1;
#X connect 7 0 22 1;
#X connect 8 0 27 1;
#X connect 9 0 24 1;
#X connect 10 0 29 1;
#X connect 11 0 12 0;
#X connect 12 0 28 0;
#X connect 12 0 29 0;
#X connect 12 1 13 0;
#X connect 13 0 14 0;
#X connect 13 1 21 0;
#X connect 14 0 15 0;
#X connect 14 0 20 0;
#X connect 15 0 19 0;
#X connect 16 0 17 0;
#X connect 17 1 18 0;
#X connect 18 0 20 1;
#X connect 18 0 19 1;
#X connect 19 0 30 0;
#X connect 20 0 21 0;
#X connect 21 0 23 0;
#X connect 21 1 22 0;
#X connect 21 1 26 1;
#X connect 22 0 30 0;
#X connect 23 0 24 0;
#X connect 24 0 25 0;
#X connect 25 0 26 0;
#X connect 26 0 27 0;
#X connect 27 0 30 0;
#X connect 28 0 23 0;
#X connect 29 0 30 0;
#X connect 30 0 31 0;
