#N canvas 580 394 443 309 12;
#X obj 70 60 inlet~;
#X obj 210 69 clip -45 45;
#X obj 210 98 * 0.0174533;
#X obj 210 40 inlet angle;
#X obj 140 160 expr 0.707107 * (cos($f1) + sin($f1));
#X obj 140 130 expr 0.707107 * (cos($f1) - sin($f1));
#X obj 70 210 *~;
#X obj 100 210 *~;
#X obj 210 240 outlet~ right;
#X obj 70 240 outlet~ left;
#X obj 142 40 loadbang;
#X msg 142 65 0;
#X connect 0 0 6 0;
#X connect 0 0 7 0;
#X connect 1 0 2 0;
#X connect 2 0 4 0;
#X connect 2 0 5 0;
#X connect 3 0 1 0;
#X connect 4 0 7 1;
#X connect 5 0 6 1;
#X connect 6 0 9 0;
#X connect 7 0 8 0;
#X connect 10 0 11 0;
#X connect 11 0 1 0;
