#N canvas 730 360 351 251 14;
#X obj 140 100 inlet;
#X obj 210 100 inlet;
#X obj 80 130 `f \$2!;
#X obj 80 160 sel;
#X obj 140 130 pack 0 \$1;
#X obj 140 160 line~;
#X obj 140 190 outlet~;
#X text 30 60 ramp between value changes (signal);
#X obj 150 30 cnv 15 40 22 empty empty zp~ 2 10 0 16 -1 -262144 0;
#X connect 0 0 4 0;
#X connect 1 0 4 1;
#X connect 2 0 3 0;
#X connect 3 1 5 0;
#X connect 4 0 5 0;
#X connect 5 0 6 0;
