#N canvas 510 280 360 380 14;
#X declare -lib blunt;
#X obj 50 50 noise~;
#X obj 50 220 *~;
#X obj 70 180 vline~;
#X obj 50 260 +~;
#X obj 120 20 inlet;
#X obj 50 320 outlet~;
#X obj 60 290 delwrite~ \$0buf 1000;
#X obj 170 150 delread4~ \$0buf;
#X obj 170 90 @/ 1000;
#X obj 240 320 block~ 1;
#N canvas 400 200 450 300 lib 0;
#X obj 140 120 declare -lib blunt;
#X restore 50 20 pd lib;
#X obj 170 180 *~ 0.999;
#X obj 250 180 inlet;
#X msg 70 150 \$1 \, 0 0 \$2;
#X obj 70 120 pack;
#X obj 120 50 t f f;
#N canvas 730 350 450 300 loud 0;
#X obj 160 100 inlet;
#X obj 160 190 outlet;
#X obj 160 160 clip 0.01 1;
#X floatatom 270 160 0 0 0 0 - - - 0;
#X floatatom 110 70 0 0 0 0 - - - 0;
#X obj 110 100 mtof;
#X obj 160 130 slx log 12 1800 1;
#X connect 0 0 6 0;
#X connect 2 0 1 0;
#X connect 4 0 5 0;
#X connect 5 0 6 0;
#X connect 6 0 2 0;
#X connect 6 0 3 0;
#X restore 70 90 pd loud;
#X obj 170 220 lop~ 6000;
#X text 200 50 Karplus-Strong;
#X connect 0 0 1 0;
#X connect 1 0 3 0;
#X connect 2 0 1 1;
#X connect 3 0 5 0;
#X connect 3 0 6 0;
#X connect 4 0 15 0;
#X connect 7 0 11 0;
#X connect 8 0 7 0;
#X connect 8 0 14 1;
#X connect 11 0 17 0;
#X connect 12 0 17 1;
#X connect 13 0 2 0;
#X connect 14 0 13 0;
#X connect 15 0 16 0;
#X connect 15 1 8 0;
#X connect 16 0 14 0;
#X connect 17 0 3 1;
