#N canvas 60 320 380 370 14;
#X obj 50 250 dac~;
#X obj 50 30 r \$0a;
#X obj 50 220 *~;
#X obj 190 30 r \$0b;
#X obj 110 190 r \$0vol;
#X obj 50 190 *~ 0.5;
#X obj 190 60 t f b;
#X obj 190 90 pipe;
#X obj 50 60 t f b;
#X obj 50 90 pipe;
#X obj 90 220 hsl 187 22 0.001 1 1 0 empty empty empty -2 -11 0 14 #000000 #fcfcfc #fcfcfc 0 1;
#X obj 240 90 rind 15;
#X obj 100 90 rind 15;
#N canvas 440 320 360 300 rand 0;
#X obj 120 160 ct 4;
#X floatatom 170 230 0 0 0 0 - - - 0;
#X floatatom 260 230 0 0 0 0 - - - 0;
#X obj 120 230 s \$0a;
#X obj 210 230 s \$0b;
#X obj 120 40 r \$0met;
#X obj 210 100 loadbang;
#X floatatom 190 40 0 0 0 0 - - - 0;
#X msg 210 160 nop 1;
#X obj 190 70 @/ 1000;
#X obj 120 100 metro~ 1;
#X obj 40 40 inlet;
#X obj 40 70 switch~;
#X obj 120 200 rand 11;
#X obj 210 200 rand 11 26;
#X connect 0 0 13 0;
#X connect 5 0 10 0;
#X connect 6 0 8 0;
#X connect 7 0 9 0;
#X connect 8 0 13 0;
#X connect 8 0 14 0;
#X connect 9 0 10 0;
#X connect 10 0 0 0;
#X connect 10 0 14 0;
#X connect 11 0 12 0;
#X connect 13 0 1 0;
#X connect 13 0 3 0;
#X connect 14 0 2 0;
#X connect 14 0 4 0;
#X restore 140 310 pd rand;
#X obj 50 150 ks;
#X obj 190 150 ks;
#X obj 190 120 muse 28 2 5 7 8;
#X obj 50 120 muse 28 2 5 7 8;
#X obj 110 270 tgl 22 0 empty empty empty 0 -11 0 14 #000000 #fcfcfc #fcfcfc 0 1;
#X obj 140 270 r \$0mode;
#X connect 1 0 8 0;
#X connect 2 0 0 0;
#X connect 2 0 0 1;
#X connect 3 0 6 0;
#X connect 4 0 2 1;
#X connect 5 0 2 0;
#X connect 6 0 7 0;
#X connect 6 1 11 0;
#X connect 7 0 16 0;
#X connect 8 0 9 0;
#X connect 8 1 12 0;
#X connect 9 0 17 0;
#X connect 10 0 2 1;
#X connect 11 0 7 1;
#X connect 12 0 9 1;
#X connect 14 0 5 0;
#X connect 15 0 5 0;
#X connect 16 0 15 0;
#X connect 17 0 14 0;
#X connect 18 0 13 0;
#X connect 19 0 13 0;
