#N canvas 371 139 761 655 12;
#X obj 105 64 inlet;
#X text 101 39 trigger;
#X obj 105 139 sel 0;
#X obj 166 290 pack 0 \$1;
#X obj 468 151 inlet;
#X obj 429 274 del \$1;
#X obj 501 513 line~;
#X obj 453 297 f \$3;
#X obj 507 372 pack 0 \$2;
#X obj 540 151 inlet;
#X obj 604 151 inlet;
#X obj 682 151 inlet;
#X msg 105 170 stop;
#X obj 622 306 pack 0 \$4;
#X obj 501 538 outlet~;
#X text 86 392 and pack with;
#X text 87 412 attack time;
#X text 31 126 if zero;
#X text 32 143 release;
#X text 12 160 and cancel;
#X text 43 177 decay;
#X text 275 265 on attack \, set a;
#X text 269 298 recall sustain value;
#X text 306 371 pack with decay time;
#X text 615 332 on release ramp;
#X text 616 349 back to zero;
#X obj 453 322 * 0.01;
#X text 40 575 Objects such as "f" and "pack" can be given dollar sign
arguments to initialize their contents from adsr's creation arguments.
Inlets are supplied to change them on the fly.;
#X text 13 2 ADSR ENVELOPE;
#X text 464 129 attack;
#X text 541 128 decay;
#X text 597 129 sustain;
#X text 679 130 release;
#X text 192 104 attack;
#X obj 194 125 moses;
#X msg 128 290 0;
#X text 20 273 optionally;
#X text 10 291 bash to zero;
#X text 25 246 ATTACK:;
#X text 42 485 When you send this patch a positive trigger it schedules
a line~ to do an attack and decay \, and if zero \, it starts the release
ramp.;
#X text 495 629 Updated for Pd version 0.37;
#X text 245 123 test for negative trigger;
#X text 243 147 if so \, zero;
#X text 244 163 the output;
#X text 294 348 multiply by peak level;
#X text 271 279 delay for sustain;
#X text 267 321 convert from percent;
#X text 139 354 ... then;
#X text 87 373 recall peak level;
#X text 40 537 Negative triggers cause the output to jump to zero and
then attack (instead of attacking from the current location).;
#X text 208 1 Arguments: level \, attack time \, decay time \, sustain
level \, release time. A \, D \, and R are in msec and S is in percent.
This patch is used as an abstraction in various examples.;
#X obj 194 153 t f b;
#X obj 194 228 * -1;
#X obj 507 348 *;
#X obj 429 216 b;
#X obj 105 89 route float;
#X obj 429 151 1;
#X connect 0 0 55 0;
#X connect 2 0 12 0;
#X connect 2 0 13 0;
#X connect 2 1 34 0;
#X connect 3 0 6 0;
#X connect 4 0 3 1;
#X connect 4 0 5 1;
#X connect 5 0 7 0;
#X connect 6 0 14 0;
#X connect 7 0 26 0;
#X connect 8 0 6 0;
#X connect 9 0 8 1;
#X connect 10 0 7 1;
#X connect 11 0 13 1;
#X connect 12 0 5 0;
#X connect 13 0 6 0;
#X connect 26 0 53 0;
#X connect 34 0 51 0;
#X connect 34 1 56 0;
#X connect 35 0 6 0;
#X connect 51 0 52 0;
#X connect 51 1 35 0;
#X connect 52 0 56 0;
#X connect 53 0 8 0;
#X connect 54 0 5 0;
#X connect 55 0 2 0;
#X connect 55 1 56 0;
#X connect 56 0 3 0;
#X connect 56 0 53 1;
#X connect 56 0 54 0;
