#N canvas 300 300 451 301 12;
#X obj 80 250 dac~;
#X obj 80 220 *~;
#X floatatom 160 190 0 0 0 0 - - -;
#X obj 160 160 r \$0vol;
#X obj 80 80 pulse~ 440 0.5;
#X obj 80 151 *~;
#X obj 80 54 line~;
#X msg 134 54 stop;
#X obj 20 80 r press;
#X obj 197 55 r release;
#X msg 80 27 200 \, 800 500;
#X obj 111 123 adsr 3 100 66 125;
#X msg 197 80 0;
#X connect 1 0 0 0;
#X connect 1 0 0 1;
#X connect 2 0 1 1;
#X connect 3 0 2 0;
#X connect 4 0 5 0;
#X connect 5 0 1 0;
#X connect 6 0 4 0;
#X connect 7 0 6 0;
#X connect 8 0 10 0;
#X connect 8 0 11 0;
#X connect 9 0 12 0;
#X connect 9 0 7 0;
#X connect 10 0 6 0;
#X connect 11 0 5 1;
#X connect 12 0 11 0;
