#N canvas 300 300 451 301 12;
#X obj 70 139 expr~ $v1 > $f2;
#X obj 210 80 inlet;
#X obj 70 168 outlet~;
#X obj 70 110 phasor~ \$1;
#X obj 140 80 inlet;
#X obj 230 140 \$2;
#X obj 230 110 loadbang;
#X obj 70 80 inlet~;
#X connect 0 0 2 0;
#X connect 1 0 0 1;
#X connect 3 0 0 0;
#X connect 4 0 3 1;
#X connect 5 0 0 1;
#X connect 6 0 5 0;
#X connect 7 0 3 0;
