#N canvas 740 300 670 590 14;
#X obj 370 530 dac~;
#X obj 390 490 *~;
#X floatatom 440 460 0 0 0 0 - - - 0;
#N canvas 0 50 450 250 (subpatch) 0;
#X array \$0view 480 float 2;
#X coords 0 1.0833 480 -1.0833 240 130 1 0 0;
#X restore 350 40 graph;
#X floatatom 570 400 0 0 0 0 - - - 0;
#X obj 490 410 tgl 15 0 empty empty empty 17 7 0 10 #000000 #fcfcfc
#fcfcfc 0 1;
#X obj 390 400 *~;
#X obj 220 230 tgl 17 0 empty empty start 19 7 0 12 #000000 #fcfcfc
#fcfcfc 0 1;
#X obj 40 70 tgl 15 0 empty empty pause 19 7 0 12 #000000 #fcfcfc #fcfcfc
0 1;
#X obj 490 430 metro 20;
#N canvas 930 450 400 300 pause 0;
#X msg 80 160 0, f 2;
#X obj 220 110 spigot;
#X obj 220 150 f;
#X obj 70 80 t f f;
#X obj 70 50 inlet;
#X obj 220 50 inlet;
#X obj 150 220 outlet;
#X obj 80 220 outlet;
#X obj 220 220 outlet;
#X obj 120 160 t;
#X msg 110 190 1, f 2;
#X obj 220 190 sel 0;
#X obj 70 110 sel 1;
#X obj 270 80 == 0;
#X connect 0 0 7 0;
#X connect 1 0 0 0;
#X connect 1 0 2 0;
#X connect 2 0 12 0;
#X connect 2 0 11 0;
#X connect 3 0 12 0;
#X connect 3 1 13 0;
#X connect 3 1 2 1;
#X connect 4 0 3 0;
#X connect 5 0 1 0;
#X connect 9 0 10 0;
#X connect 9 1 6 0;
#X connect 10 0 7 0;
#X connect 11 0 8 0;
#X connect 12 0 9 0;
#X connect 13 0 1 1;
#X restore 220 250 pd pause;
#X obj 90 310 -;
#X obj 180 340 spigot;
#X obj 160 310 t f f;
#X floatatom 30 430 5 0 0 0 - - - 0;
#X obj 40 130 t b b b;
#X obj 240 380 f;
#X obj 40 100 metro;
#X obj 280 380 3000;
#X floatatom 150 170 0 0 0 0 - - - 0;
#X floatatom 330 350 0 0 0 0 - - - 0;
#X obj 330 380 * 10;
#X obj 420 370 ad 10 130;
#N canvas 850 360 550 480 vals 0;
#X obj 290 420 outlet~;
#X obj 40 420 outlet~;
#X obj 180 420 outlet~;
#X obj 400 420 outlet~;
#X obj 400 370 curve~ -0.5;
#X obj 60 160 bng 15 250 50 0 empty empty empty 17 7 0 10 #000000 #fcfcfc
#fcfcfc;
#X obj 210 260 @pow 2;
#X obj 190 110 t a;
#X obj 190 50 r \$0bt;
#X obj 320 260 @pow 2;
#X floatatom 370 110 0 0 0 0 - - - 0;
#X obj 400 330 pack;
#X obj 440 270 r \$0met;
#X floatatom 340 110 0 0 0 0 - - - 0;
#X floatatom 470 110 0 0 0 0 - - - 0;
#X floatatom 230 110 0 0 0 0 - - - 0;
#X obj 430 230 rind 0 2;
#X floatatom 260 110 0 0 0 0 - - - 0;
#X obj 210 230 rand -1 2;
#X obj 320 230 rand -2 2;
#X obj 40 230 rand 7;
#X obj 40 260 muse 50 2 4 5 7 9 10;
#X connect 4 0 3 0;
#X connect 5 0 20 0;
#X connect 6 0 2 0;
#X connect 7 0 16 0;
#X connect 7 0 18 0;
#X connect 7 0 19 0;
#X connect 7 0 20 0;
#X connect 8 0 7 0;
#X connect 9 0 0 0;
#X connect 10 0 19 2;
#X connect 11 0 4 0;
#X connect 12 0 11 1;
#X connect 13 0 19 1;
#X connect 14 0 16 2;
#X connect 15 0 18 1;
#X connect 16 0 11 0;
#X connect 17 0 18 2;
#X connect 18 0 6 0;
#X connect 19 0 9 0;
#X connect 20 0 21 0;
#X connect 21 0 1 0;
#X restore 380 210 pd vals;
#N canvas 150 130 450 300 info 0;
#X text 160 100 artist : myQwil;
#X text 160 120 title : ModStep;
#X text 160 140 l!ength : 179700;
#X text 160 160 length : 0;
#X restore 20 530 pd info;
#X obj 100 430 bng 15 250 50 0 empty empty empty 17 7 0 10 #000000
#fcfcfc #fcfcfc;
#X obj 390 430 *~ 0.6;
#N canvas 160 550 450 300 mix 0;
#X obj 100 80 r pre;
#X obj 160 230 s met;
#X floatatom 70 40 5 0 0 0 - - - 0;
#X obj 230 120 % 32;
#X obj 100 120 moses 32;
#X floatatom 160 200 0 0 0 0 - - - 0;
#X obj 100 150 sly 50 750 32;
#X obj 230 150 sly 750 6000 31;
#X connect 0 0 4 0;
#X connect 2 0 4 0;
#X connect 3 0 7 0;
#X connect 4 0 6 0;
#X connect 4 1 3 0;
#X connect 5 0 1 0;
#X connect 6 0 5 0;
#X connect 7 0 5 0;
#X restore 90 530 pd mix;
#X obj 60 270 rind;
#X obj 150 200 t b f;
#X obj 440 490 / 1000;
#X floatatom 20 310 0 0 0 0 - - - 0;
#X floatatom 250 140 0 0 0 0 - - - 0;
#X text 20 500 myQwil;
#X obj 450 520 r \$0vol;
#X obj 490 460 tabwrite~ \$0view;
#X obj 220 200 r \$0play;
#X obj 100 460 s \$0play;
#X floatatom 230 110 0 0 0 0 - - - 0;
#X obj 180 110 rind;
#X obj 30 400 f 1000 !;
#X obj 380 270 fm2op~, f 8;
#X obj 110 40 r \$0met;
#X obj 40 40 r \$0tog;
#X obj 210 50 r \$0met;
#X obj 80 200 r \$0met;
#X obj 300 200 r \$0bt;
#X obj 160 380 s \$0tog;
#X obj 40 160 s \$0bt;
#X obj 110 280 r \$0atk;
#X obj 180 140 s \$0atk;
#X obj 280 420 s \$0dcy;
#X obj 420 310 r \$0bt;
#X obj 480 310 r \$0atk;
#X obj 550 310 r \$0dcy;
#X obj 30 460 s \$0met;
#X msg 420 340 1;
#X obj 210 80 / 32;
#X obj 150 240 * 2.5;
#X obj 80 240 / 1.5;
#X connect 1 0 0 0;
#X connect 1 0 0 1;
#X connect 2 0 30 0;
#X connect 4 0 9 1;
#X connect 5 0 9 0;
#X connect 6 0 26 0;
#X connect 7 0 10 0;
#X connect 8 0 17 0;
#X connect 9 0 35 0;
#X connect 10 0 13 0;
#X connect 10 1 16 0;
#X connect 10 2 18 0;
#X connect 11 0 12 0;
#X connect 12 0 16 0;
#X connect 13 0 47 0;
#X connect 13 1 12 1;
#X connect 14 0 55 0;
#X connect 15 0 48 0;
#X connect 15 1 28 0;
#X connect 15 2 39 0;
#X connect 16 0 51 0;
#X connect 17 0 15 0;
#X connect 18 0 51 0;
#X connect 19 0 29 0;
#X connect 20 0 21 0;
#X connect 21 0 18 1;
#X connect 21 0 51 0;
#X connect 22 0 6 1;
#X connect 23 0 41 0;
#X connect 23 1 41 1;
#X connect 23 2 41 2;
#X connect 23 3 41 3;
#X connect 25 0 37 0;
#X connect 26 0 1 0;
#X connect 26 0 35 0;
#X connect 28 0 11 0;
#X connect 28 0 31 0;
#X connect 29 0 58 0;
#X connect 29 1 58 1;
#X connect 30 0 1 1;
#X connect 34 0 1 1;
#X connect 36 0 7 0;
#X connect 39 0 32 0;
#X connect 39 0 50 0;
#X connect 40 0 14 0;
#X connect 41 0 6 0;
#X connect 42 0 17 1;
#X connect 43 0 8 0;
#X connect 44 0 57 0;
#X connect 45 0 58 0;
#X connect 45 0 59 0;
#X connect 46 0 10 1;
#X connect 49 0 11 1;
#X connect 52 0 56 0;
#X connect 53 0 22 1;
#X connect 54 0 22 2;
#X connect 56 0 22 0;
#X connect 57 0 38 0;
#X connect 57 0 39 2;
#X connect 58 0 28 2;
#X connect 59 0 28 1;
