#N canvas 690 320 670 590 14;
#X obj 370 510 dac~;
#X obj 390 470 *~;
#X floatatom 460 460 0 0 0 0 - - - 0;
#N canvas 0 50 450 250 (subpatch) 0;
#X array \$0view 500 float 0;
#X coords 0 1 500 -1 250 140 1 0 0;
#X restore 350 40 graph;
#X floatatom 550 370 0 0 0 0 - - - 0;
#X obj 470 380 tgl 15 0 empty empty empty 17 7 0 10 #000000 #fcfcfc
#fcfcfc 0 1;
#X obj 390 350 *~;
#X obj 190 230 tgl 17 0 empty empty start 19 7 0 12 #000000 #fcfcfc
#fcfcfc 0 1;
#X obj 170 320 s tog;
#X obj 40 80 tgl 15 0 empty empty pause 19 7 0 12 #000000 #fcfcfc #fcfcfc
0 1;
#X obj 470 400 metro 18.87;
#N canvas 930 450 400 300 pause 0;
#X msg 80 160 0, f 2;
#X obj 220 110 spigot;
#X obj 220 150 f;
#X obj 70 80 t f f;
#X obj 70 50 inlet;
#X obj 220 50 inlet;
#X obj 150 220 outlet;
#X obj 80 220 outlet;
#X obj 220 220 outlet;
#X obj 120 160 t;
#X msg 110 190 1, f 2;
#X obj 220 190 sel 0;
#X obj 70 110 sel 1;
#X obj 270 80 == 0;
#X connect 0 0 7 0;
#X connect 1 0 0 0;
#X connect 1 0 2 0;
#X connect 2 0 12 0;
#X connect 2 0 11 0;
#X connect 3 0 12 0;
#X connect 3 1 13 0;
#X connect 3 1 2 1;
#X connect 4 0 3 0;
#X connect 5 0 1 0;
#X connect 9 0 10 0;
#X connect 9 1 6 0;
#X connect 10 0 7 0;
#X connect 11 0 8 0;
#X connect 12 0 9 0;
#X connect 13 0 1 1;
#X restore 190 250 pd pause;
#X obj 30 160 s bt;
#X obj 500 240 r bt;
#X obj 70 300 -;
#X obj 290 250 r bt;
#X obj 70 330 spigot;
#X obj 170 290 t f f;
#X floatatom 30 430 5 0 0 0 - - - 0;
#X obj 30 460 s met;
#X obj 80 200 r met;
#X obj 40 130 t b b b;
#X obj 180 140 s atk;
#X obj 540 270 r atk;
#X obj 110 270 r atk;
#X obj 220 430 f;
#X obj 40 110 metro;
#X obj 220 490 s dcy;
#X obj 590 270 r dcy;
#X obj 260 460 3000;
#X floatatom 130 170 0 0 0 0 - - - 0;
#X floatatom 300 430 0 0 0 0 - - - 0;
#X obj 300 460 * 10;
#X obj 510 300 ad 10 130;
#X floatatom 270 490 0 0 0 0 - - - 0;
#X obj 40 60 r tog;
#N canvas 850 360 550 480 vals 0;
#X obj 340 420 outlet~;
#X obj 40 420 outlet~;
#X obj 180 420 outlet~;
#X obj 190 110 r bt;
#X obj 190 140 t;
#X obj 360 280 r met;
#X obj 220 300 b;
#X floatatom 90 150 0 0 0 0 - - - 0;
#X floatatom 240 130 0 0 0 0 - - - 0;
#X floatatom 390 110 0 0 0 0 - - - 0;
#X floatatom 110 200 0 0 0 0 - - - 0;
#X msg 110 230 x \$1;
#X floatatom 400 160 0 0 0 0 - - - 0;
#X msg 400 190 x \$1;
#X floatatom 260 200 0 0 0 0 - - - 0;
#X msg 260 230 x \$1;
#X msg 240 40 7;
#X obj 340 190 rand 30;
#X obj 180 230 rand 30;
#X obj 180 260 muse 84 4 7 9 10;
#X obj 40 260 muse 72 4 7 9 10;
#X obj 40 230 rand 20;
#X obj 340 220 muse 24 4 7 9 10;
#X obj 60 360 rind;
#X obj 210 360 rind;
#X obj 360 360 rind;
#X obj 380 310 / 2;
#X obj 40 390 curve~;
#X obj 180 390 curve~;
#X obj 340 390 curve~;
#X obj 400 360 rind -0.7;
#X obj 250 360 rind -0.7;
#X obj 100 360 rind -0.7;
#X floatatom 410 250 0 0 0 0 - - - 0;
#X msg 410 280 . \$1;
#X connect 3 0 4 0;
#X connect 4 0 17 0;
#X connect 4 0 18 0;
#X connect 4 0 21 0;
#X connect 4 1 6 0;
#X connect 5 0 26 0;
#X connect 6 0 23 0;
#X connect 6 0 24 0;
#X connect 6 0 25 0;
#X connect 6 0 30 0;
#X connect 6 0 31 0;
#X connect 6 0 32 0;
#X connect 7 0 21 1;
#X connect 8 0 18 1;
#X connect 9 0 17 1;
#X connect 10 0 11 0;
#X connect 11 0 20 0;
#X connect 12 0 13 0;
#X connect 13 0 22 0;
#X connect 14 0 15 0;
#X connect 15 0 19 0;
#X connect 16 0 7 0;
#X connect 16 0 8 0;
#X connect 16 0 9 0;
#X connect 17 0 22 0;
#X connect 18 0 19 0;
#X connect 19 0 28 0;
#X connect 20 0 27 0;
#X connect 21 0 20 0;
#X connect 22 0 29 0;
#X connect 23 0 27 1;
#X connect 24 0 28 1;
#X connect 25 0 29 1;
#X connect 26 0 23 1;
#X connect 26 0 24 1;
#X connect 26 0 25 1;
#X connect 27 0 1 0;
#X connect 28 0 2 0;
#X connect 29 0 0 0;
#X connect 30 0 29 2;
#X connect 31 0 28 2;
#X connect 32 0 27 2;
#X connect 33 0 34 0;
#X connect 34 0 26 0;
#X restore 350 200 pd vals;
#X obj 350 230 fmosc~;
#N canvas 940 400 520 380 vals 0;
#X obj 70 320 outlet~;
#X obj 250 320 outlet~;
#X obj 340 220 r met;
#X obj 190 40 r bt;
#X obj 190 70 t;
#X obj 210 190 b;
#X floatatom 90 60 0 0 0 0 - - - 0;
#X msg 90 90 x \$1;
#X floatatom 40 60 0 0 0 0 - - - 0;
#X msg 40 90 x \$1;
#X floatatom 150 110 0 0 0 0 - - - 0;
#X floatatom 330 110 0 0 0 0 - - - 0;
#X msg 70 20 7;
#X obj 250 140 rand 30;
#X obj 250 170 muse -12 4 7 9 10;
#X obj 270 250 rind;
#X obj 100 250 rind;
#X obj 290 210 / 2;
#X obj 70 170 muse 84 4 7 9 10;
#X obj 70 140 rand 15;
#X obj 70 290 curve~;
#X obj 140 250 rind -0.7;
#X obj 250 290 curve~;
#X obj 320 250 rind -0.7;
#X msg 400 210 . \$1;
#X floatatom 400 180 0 0 0 0 - - - 0;
#X connect 2 0 17 0;
#X connect 3 0 4 0;
#X connect 4 0 13 0;
#X connect 4 0 19 0;
#X connect 4 1 5 0;
#X connect 5 0 15 0;
#X connect 5 0 16 0;
#X connect 5 0 21 0;
#X connect 5 0 23 0;
#X connect 6 0 7 0;
#X connect 7 0 14 0;
#X connect 8 0 9 0;
#X connect 9 0 18 0;
#X connect 10 0 19 1;
#X connect 11 0 13 1;
#X connect 12 0 8 0;
#X connect 12 0 6 0;
#X connect 13 0 14 0;
#X connect 14 0 22 0;
#X connect 15 0 22 1;
#X connect 16 0 20 1;
#X connect 17 0 15 1;
#X connect 17 0 16 1;
#X connect 18 0 20 0;
#X connect 19 0 18 0;
#X connect 20 0 0 0;
#X connect 21 0 20 2;
#X connect 22 0 1 0;
#X connect 23 0 22 2;
#X connect 24 0 17 0;
#X connect 25 0 24 0;
#X restore 410 230 pd vals;
#N canvas 150 130 450 300 info 0;
#X text 160 100 artist : myQwil;
#X text 170 110 title : ModStep;
#X text 160 130 l!ength : 179700;
#X text 160 140 length : 0;
#X restore 20 530 pd info;
#X obj 270 180 bng 15 250 50 0 empty empty empty 17 7 0 10 #000000
#fcfcfc #fcfcfc;
#X obj 390 380 *~ 0.6;
#X obj 390 320 fmore~;
#N canvas 160 550 450 300 mix 0;
#X obj 100 80 r pre;
#X obj 160 230 s met;
#X floatatom 70 40 5 0 0 0 - - - 0;
#X obj 230 120 % 32;
#X obj 100 120 moses 32;
#X floatatom 160 200 0 0 0 0 - - - 0;
#X obj 100 150 sly 50 750 32;
#X obj 230 150 sly 750 6000 31;
#X connect 0 0 4 0;
#X connect 2 0 4 0;
#X connect 3 0 7 0;
#X connect 4 0 6 0;
#X connect 4 1 3 0;
#X connect 5 0 1 0;
#X connect 6 0 5 0;
#X connect 7 0 5 0;
#X restore 90 530 pd mix;
#X obj 100 110 r met;
#X obj 70 270 rind;
#X obj 130 200 t b f;
#X obj 120 240 * 1.1;
#X obj 80 240 / 2;
#X obj 460 490 / 1000;
#X floatatom 100 300 0 0 0 0 - - - 0;
#X floatatom 230 140 0 0 0 0 - - - 0;
#X text 20 500 myQwil;
#X obj 470 520 r \$0vol;
#X obj 240 60 r met;
#X obj 30 400 f 1000!;
#X obj 470 430 tabwrite~ \$0view;
#X obj 190 200 r \$0play;
#X obj 270 200 s \$0play;
#X floatatom 260 110 0 0 0 0 - - - 0;
#X obj 180 110 rind;
#X obj 240 80 / 32;
#X msg 500 270 -1;
#X connect 1 0 0 0;
#X connect 1 0 0 1;
#X connect 2 0 49 0;
#X connect 4 0 10 1;
#X connect 5 0 10 0;
#X connect 6 0 41 0;
#X connect 7 0 11 0;
#X connect 9 0 26 0;
#X connect 10 0 56 0;
#X connect 11 0 17 0;
#X connect 11 1 25 0;
#X connect 11 2 29 0;
#X connect 13 0 62 0;
#X connect 14 0 16 0;
#X connect 15 0 11 1;
#X connect 16 0 25 0;
#X connect 17 0 8 0;
#X connect 17 1 16 1;
#X connect 18 0 19 0;
#X connect 20 0 47 0;
#X connect 20 0 48 0;
#X connect 21 0 12 0;
#X connect 21 1 45 0;
#X connect 21 2 60 0;
#X connect 23 0 33 1;
#X connect 24 0 14 1;
#X connect 25 0 27 0;
#X connect 26 0 21 0;
#X connect 28 0 33 2;
#X connect 29 0 27 0;
#X connect 29 0 34 0;
#X connect 30 0 46 0;
#X connect 31 0 32 0;
#X connect 32 0 29 1;
#X connect 32 0 27 0;
#X connect 33 0 6 1;
#X connect 35 0 9 0;
#X connect 36 0 37 0;
#X connect 36 1 37 1;
#X connect 36 2 37 2;
#X connect 37 0 42 0;
#X connect 38 0 42 1;
#X connect 38 1 42 2;
#X connect 40 0 58 0;
#X connect 41 0 1 0;
#X connect 41 0 56 0;
#X connect 42 0 6 0;
#X connect 44 0 26 1;
#X connect 45 0 14 0;
#X connect 45 0 50 0;
#X connect 46 0 47 0;
#X connect 46 0 48 0;
#X connect 46 1 47 1;
#X connect 46 1 48 1;
#X connect 47 0 45 2;
#X connect 48 0 45 1;
#X connect 49 0 1 1;
#X connect 53 0 1 1;
#X connect 54 0 61 0;
#X connect 55 0 18 0;
#X connect 57 0 7 0;
#X connect 60 0 22 0;
#X connect 60 0 51 0;
#X connect 61 0 59 0;
#X connect 61 0 60 2;
#X connect 62 0 33 0;
