#N canvas 610 270 505 433 12;
#X obj 250 340 dac~;
#N canvas 368 100 677 283 test 0;
#N canvas 0 22 450 300 (subpatch) 0;
#X array array1 10 float 3;
#A 0 0.0857145 0.328572 0.500001 0.57143 0.514287 0.47143 0.357144
0.285715 0.057143 0;
#X coords 0 1 10 -1 200 140 1;
#X restore 496 68 graph;
#X obj 155 197 tabread array1;
#X obj 155 102 until;
#X obj 155 127 f;
#X obj 189 127 + 1;
#X obj 222 127 sel 0;
#X obj 189 153 mod 10;
#X obj 133 27 inlet;
#X msg 14 198 FINISH ARRAY TEST;
#X msg 289 200 START ARRAY TEST;
#X obj 133 62 t b b b;
#X obj 14 236 print PD;
#X obj 289 240 print PD;
#X obj 155 238 print PD array1;
#X connect 1 0 13 0;
#X connect 2 0 3 0;
#X connect 3 0 4 0;
#X connect 3 0 1 0;
#X connect 4 0 6 0;
#X connect 5 0 2 1;
#X connect 6 0 3 1;
#X connect 6 0 5 0;
#X connect 7 0 10 0;
#X connect 8 0 11 0;
#X connect 9 0 12 0;
#X connect 10 0 8 0;
#X connect 10 1 2 0;
#X connect 10 2 9 0;
#X restore 50 250 pd test array;
#N canvas 0 22 949 263 test 0;
#X obj 174 236 noteout 1;
#X obj 291 21 inlet;
#X obj 291 58 t b b b b b b b b;
#X obj 309 237 ctlout 1;
#X obj 410 237 pgmout 1;
#X msg 410 203 100;
#X obj 497 237 bendout 1;
#X obj 588 238 touchout 1;
#X obj 691 239 polytouchout 1;
#X msg 497 203 2000;
#X msg 35 201 START MIDI TEST;
#X msg 934 210 MIDI TEST FINISHED;
#X obj 35 234 print PD;
#X obj 934 240 print PD;
#X obj 823 240 midiout;
#X obj 823 210 unpack f f;
#X msg 823 181 239 0;
#X text 464 270 note: bendout values are -8192 - 8192;
#X obj 823 144 t b b;
#X text 292 264 note: val ctl;
#X text 686 176 note: val note;
#X text 809 265 note: byte port;
#X msg 691 208 100 64;
#X msg 174 201 60 64;
#X msg 309 202 100 64;
#X msg 588 207 100;
#X connect 1 0 2 0;
#X connect 2 0 18 0;
#X connect 2 1 22 0;
#X connect 2 2 25 0;
#X connect 2 3 9 0;
#X connect 2 4 5 0;
#X connect 2 5 24 0;
#X connect 2 6 23 0;
#X connect 2 7 10 0;
#X connect 5 0 4 0;
#X connect 9 0 6 0;
#X connect 10 0 12 0;
#X connect 11 0 13 0;
#X connect 15 0 14 0;
#X connect 15 1 14 1;
#X connect 16 0 15 0;
#X connect 18 0 11 0;
#X connect 18 1 16 0;
#X connect 22 0 8 0;
#X connect 23 0 0 0;
#X connect 24 0 3 0;
#X connect 25 0 7 0;
#X restore 70 220 pd test midi;
#N canvas 519 332 425 423 sines 0;
#X obj 20 310 *~ 0.2;
#X obj 20 380 outlet~;
#X obj 20 20 r mod-freq;
#X obj 150 30 r mod-index;
#X obj 100 180 r carrier-freq;
#X obj 90 210 + 400;
#X obj 140 210 f;
#X obj 70 280 print carrier-freq;
#X obj 20 340 pan~;
#X obj 90 380 outlet~;
#X obj 60 340 r pan;
#X obj 20 250 +~;
#X obj 20 220 *~;
#X obj 250 60 print portamento;
#X obj 20 280 osc~;
#X obj 20 180 osc~;
#X obj 200 150 s modidx;
#X obj 40 100 s modfrq;
#X obj 230 280 s carfrq;
#X obj 170 320 r portamento;
#X obj 170 380 s _portamento;
#X obj 240 30 r _portamento;
#X obj 210 180 r _portamento;
#X obj 40 70 zp 5 1 10;
#X obj 200 120 zp 5 150 10;
#X obj 230 250 zp 5 400 10;
#X obj 20 150 zp~ 5 1;
#X obj 100 150 zp~ 5 150;
#X obj 90 250 zp~ 5 400;
#X obj 170 350 max 5;
#X connect 0 0 8 0;
#X connect 2 0 23 0;
#X connect 2 0 26 0;
#X connect 3 0 24 0;
#X connect 3 0 27 0;
#X connect 4 0 5 0;
#X connect 5 0 6 0;
#X connect 5 0 7 0;
#X connect 5 0 25 0;
#X connect 5 0 28 0;
#X connect 6 0 5 1;
#X connect 8 0 1 0;
#X connect 8 1 9 0;
#X connect 10 0 8 1;
#X connect 11 0 14 0;
#X connect 12 0 11 0;
#X connect 14 0 0 0;
#X connect 15 0 12 0;
#X connect 19 0 29 0;
#X connect 21 0 13 0;
#X connect 21 0 23 1;
#X connect 21 0 24 1;
#X connect 21 0 26 1;
#X connect 21 0 27 1;
#X connect 22 0 25 1;
#X connect 22 0 28 1;
#X connect 23 0 17 0;
#X connect 24 0 16 0;
#X connect 25 0 18 0;
#X connect 26 0 15 0;
#X connect 27 0 12 1;
#X connect 28 0 11 1;
#X connect 29 0 20 0;
#X restore 190 240 pd sines;
#N canvas 698 252 302 493 tone 0;
#X obj 140 290 line~;
#X obj 30 320 *~;
#X obj 30 20 r tone;
#X obj 30 140 mtof;
#X obj 160 170 t b b;
#X obj 160 140 bng 15 250 50 0 empty empty empty 17 7 0 10 #fcfcfc
#000000 #000000;
#X msg 140 240 1 2;
#X obj 200 210 delay 100;
#X msg 110 60 pitch 60;
#X obj 170 330 env~;
#X obj 170 360 change;
#X obj 170 390 s env;
#X obj 30 60 list trim;
#X obj 30 100 route pitch bang;
#X obj 30 350 *~ 0.4;
#X obj 30 170 phasor~ 200;
#X obj 30 410 outlet~;
#X msg 200 240 0 500;
#X obj 30 280 clip~ -1 1;
#X obj 30 220 -~ 0.5;
#X obj 30 250 *~ 2;
#X text 40 200 make saw;
#X obj 30 380 pan~;
#X obj 80 370 r tone-pos;
#X obj 90 410 outlet~;
#X connect 0 0 1 1;
#X connect 0 0 9 0;
#X connect 1 0 14 0;
#X connect 2 0 12 0;
#X connect 3 0 15 0;
#X connect 4 0 7 0;
#X connect 4 1 6 0;
#X connect 5 0 4 0;
#X connect 6 0 0 0;
#X connect 7 0 17 0;
#X connect 8 0 13 0;
#X connect 9 0 10 0;
#X connect 10 0 11 0;
#X connect 12 0 13 0;
#X connect 13 0 3 0;
#X connect 13 1 4 0;
#X connect 14 0 22 0;
#X connect 15 0 19 0;
#X connect 17 0 0 0;
#X connect 18 0 1 0;
#X connect 19 0 20 0;
#X connect 20 0 18 0;
#X connect 22 0 16 0;
#X connect 22 1 24 0;
#X connect 23 0 22 1;
#X restore 340 240 pd tone;
#X obj 230 60 print PD dollar zero;
#X obj 110 60 print PD;
#X msg 30 120 bang;
#N canvas 630 566 335 184 patch 0;
#X obj 40 80 \$0;
#X msg 40 110 PATCH OPENED: \$1;
#X obj 40 50 loadbang;
#X obj 200 80 \$0;
#X msg 200 110 PATCH CLOSED: \$1;
#X text 200 50 [closebang];
#X obj 40 140 print PD;
#X obj 200 140 print PD;
#X connect 0 0 1 0;
#X connect 1 0 6 0;
#X connect 2 0 0 0;
#X connect 3 0 4 0;
#X connect 4 0 7 0;
#X restore 310 120 pd patch open close;
#X obj 30 60 list trim;
#X obj 30 90 route test;
#N canvas 0 22 907 194 midi 0;
#X obj 27 25 notein;
#X obj 27 64 pack f f f;
#X obj 156 64 pack f f f;
#X obj 156 25 ctlin;
#X obj 285 25 pgmin;
#X obj 285 64 pack f f;
#X obj 394 25 bendin;
#X obj 394 64 pack f f;
#X obj 507 25 touchin;
#X obj 507 64 pack f f;
#X obj 653 26 polytouchin;
#X obj 818 67 pack f f;
#X obj 818 27 midiin;
#X obj 394 197 print PD MIDI;
#X obj 653 65 pack f f f;
#X text 330 1 note: bendin values are 0 - 16383;
#X obj 931 65 pack f f;
#X obj 931 26 sysexin;
#X msg 27 98 notein \$3 \$1 \$2;
#X msg 156 98 ctlin \$3 \$2 \$1;
#X msg 285 98 pgm \$2 \$1;
#X msg 394 98 bendin \$2 \$1;
#X msg 507 98 touchin \$2 \$1;
#X msg 653 99 polytouchin \$3 \$2 \$1;
#X msg 818 100 midiin \$2 \$1;
#X msg 931 99 sysexin \$2 \$1;
#X connect 0 0 1 0;
#X connect 0 1 1 1;
#X connect 0 2 1 2;
#X connect 1 0 18 0;
#X connect 2 0 19 0;
#X connect 3 0 2 0;
#X connect 3 1 2 1;
#X connect 3 2 2 2;
#X connect 4 0 5 0;
#X connect 4 1 5 1;
#X connect 5 0 20 0;
#X connect 6 0 7 0;
#X connect 6 1 7 1;
#X connect 7 0 21 0;
#X connect 8 0 9 0;
#X connect 8 1 9 1;
#X connect 9 0 22 0;
#X connect 10 0 14 0;
#X connect 10 1 14 1;
#X connect 10 2 14 2;
#X connect 11 0 24 0;
#X connect 12 0 11 0;
#X connect 12 1 11 1;
#X connect 14 0 23 0;
#X connect 16 0 25 0;
#X connect 17 0 16 0;
#X connect 17 1 16 1;
#X connect 18 0 13 0;
#X connect 19 0 13 0;
#X connect 20 0 13 0;
#X connect 21 0 13 0;
#X connect 22 0 13 0;
#X connect 23 0 13 0;
#X connect 24 0 13 0;
#X connect 25 0 13 0;
#X restore 310 150 pd midi in;
#N canvas 0 22 788 194 test 0;
#X obj 216 140 f 100;
#X obj 277 140 symbol kaaa;
#X obj 162 140 bang;
#X obj 378 140 list 100 2.3 test 1 2 3;
#X obj 310 28 inlet;
#X obj 310 67 t b b b b b b b;
#X msg 30 141 START MSG TEST;
#X msg 758 138 MSG TEST FINISH;
#X obj 30 175 print PD;
#X obj 758 172 print PD;
#X obj 216 187 s toLua;
#X msg 565 140 \; toLua kaa 1 2.3 test;
#X connect 0 0 10 0;
#X connect 1 0 10 0;
#X connect 2 0 10 0;
#X connect 3 0 10 0;
#X connect 4 0 5 0;
#X connect 5 0 7 0;
#X connect 5 1 11 0;
#X connect 5 2 3 0;
#X connect 5 3 1 0;
#X connect 5 4 0 0;
#X connect 5 5 2 0;
#X connect 5 6 6 0;
#X connect 6 0 8 0;
#X connect 7 0 9 0;
#X restore 90 190 pd test message;
#N canvas 554 268 263 280 delay 0;
#X obj 41 26 inlet~;
#X obj 41 230 outlet~;
#X obj 41 195 delread~ \$0-delay1;
#X obj 41 64 delwrite~ \$0-delay1 5000;
#X msg 41 160 1000;
#X obj 41 125 loadbang;
#X connect 0 0 3 0;
#X connect 2 0 1 0;
#X connect 4 0 2 0;
#X connect 5 0 4 0;
#X restore 260 200 pd delay;
#X obj 260 170 adc~;
#N canvas 742 363 377 181 license 0;
#X text 11 47 BSD Simplified License;
#X text 9 18 Copyright (c) 2012 Dan Wilcox <danomatika@gmail.com>;
#X text 12 135 See https://github.com/libpd/libpd for documentation
;
#X text 14 163 Adapted from the ofxPd openFrameworks addon example:
https://github.com/danomatika/ofxPd;
#X text 12 75 For information on usage and redistribution \, and for
a DISCLAIMER OF ALL WARRANTIES \, see the file \, "LICENSE.txt" \,
in this distribution.;
#X restore 30 370 pd license;
#X obj 30 150 t b b b b;
#X obj 30 280 test_abs;
#N canvas 665 65 462 300 scope~ 0;
#X obj 30 33 inlet~ audio;
#X obj 88 180 metro 100;
#X msg 88 146 1;
#X obj 65 69 clip~ -1 1;
#X obj 88 111 loadbang;
#N canvas 0 22 450 300 (subpatch) 0;
#X array scope 512 float 2;
#X coords 0 1 512 -1 200 140 1;
#X restore 196 31 graph;
#X obj 65 222 tabwrite~ scope;
#X obj 29 259 outlet~;
#X connect 0 0 3 0;
#X connect 0 0 7 0;
#X connect 1 0 6 0;
#X connect 2 0 1 0;
#X connect 3 0 6 0;
#X connect 4 0 2 0;
#X restore 260 240 pd scope~;
#X obj 230 30 r \$0-fromLua;
#X text 300 370 Dan Wilcox 2012 BSD;
#X obj 30 30 r fromLua;
#N canvas 0 22 230 201 runtime 0;
#X obj 46 41 loadbang;
#X obj 46 67 metro 500;
#X obj 46 179 print;
#X obj 46 91 f 0;
#X obj 82 91 + 1;
#X obj 99 179 noteout;
#X obj 99 146 makenote 1000 500;
#X connect 0 0 1 0;
#X connect 1 0 3 0;
#X connect 3 0 2 0;
#X connect 3 0 4 0;
#X connect 3 0 6 0;
#X connect 4 0 3 1;
#X connect 6 0 5 0;
#X connect 6 1 5 1;
#X restore 150 370 pd runtime test;
#X obj 250 310 *~;
#X obj 280 310 *~;
#X obj 320 310 r \$0vol;
#X floatatom 380 280 0 0 0 0 - - - 0;
#X connect 3 0 23 0;
#X connect 3 1 24 0;
#X connect 4 0 23 0;
#X connect 4 1 24 0;
#X connect 7 0 16 0;
#X connect 9 0 10 0;
#X connect 10 0 7 0;
#X connect 13 0 18 0;
#X connect 14 0 13 0;
#X connect 16 0 17 0;
#X connect 16 1 1 0;
#X connect 16 2 2 0;
#X connect 16 3 12 0;
#X connect 18 0 23 0;
#X connect 18 0 24 0;
#X connect 19 0 5 0;
#X connect 21 0 6 0;
#X connect 21 0 9 0;
#X connect 23 0 0 0;
#X connect 24 0 0 1;
#X connect 25 0 24 1;
#X connect 25 0 23 1;
#X connect 26 0 24 1;
#X connect 26 0 23 1;
