#N canvas 210 460 510 380 14;
#X obj 120 170 textfile;
#X obj 190 310 muse;
#X obj 30 280 t;
#X obj 100 310 ct;
#X obj 40 170 r loop;
#X obj 120 20 r goto;
#X obj 40 140 r \$0txt;
#X obj 300 340 outlet~;
#X obj 360 50 inlet;
#N canvas 670 570 350 300 scl 0;
#X obj 70 30 inlet;
#X obj 140 240 outlet;
#X obj 70 60 t b a;
#X obj 70 110 s \$0txt;
#X obj 70 140 r scl;
#X obj 140 110 route default;
#X obj 140 140 array get default;
#X msg 140 60 default;
#X msg 260 180 peek;
#X obj 70 200 route list;
#X obj 260 210 b !;
#X obj 70 170 list prepend # d;
#X msg 260 240 strict 1;
#X connect 0 0 2 0;
#X connect 2 0 3 0;
#X connect 2 1 5 0;
#X connect 4 0 11 0;
#X connect 5 0 6 0;
#X connect 5 1 1 0;
#X connect 6 0 11 0;
#X connect 7 0 5 0;
#X connect 8 0 1 0;
#X connect 9 0 1 0;
#X connect 10 0 12 0;
#X connect 11 0 9 0;
#X connect 12 0 1 0;
#X restore 150 250 pd scl;
#X obj 100 340 s \$0txt;
#X obj 120 80 sym \$1;
#X obj 150 50 t b f;
#X obj 100 250 inlet;
#X msg 120 140 read \$3/\$2/\$1.trk cr \, rewind;
#X obj 120 110 pak s 1 .;
#N canvas 810 440 450 370 vline 0;
#X obj 90 40 inlet;
#X obj 170 300 outlet~;
#X obj 200 40 inlet;
#X obj 150 40 inlet;
#X obj 140 70 pak 0 .;
#X obj 170 260 vline~;
#X obj 170 160 textfile;
#X obj 170 130 until;
#X msg 250 130 rewind;
#X obj 170 190 unpack f f f;
#X obj 90 150 t b f;
#X obj 160 220 * 1;
#X obj 190 220 * 1;
#X obj 230 220 * 1;
#X obj 310 190 r ms;
#X msg 140 100 read \$2/inst/\$1.inst cr \, rewind;
#X connect 0 0 10 0;
#X connect 2 0 4 1;
#X connect 3 0 4 0;
#X connect 4 0 15 0;
#X connect 5 0 1 0;
#X connect 6 0 9 0;
#X connect 6 1 8 0;
#X connect 6 1 7 1;
#X connect 7 0 6 0;
#X connect 8 0 6 0;
#X connect 9 0 11 0;
#X connect 9 1 12 0;
#X connect 9 2 13 0;
#X connect 10 0 7 0;
#X connect 10 1 11 1;
#X connect 11 0 5 0;
#X connect 12 0 5 1;
#X connect 13 0 5 2;
#X connect 14 0 13 1;
#X connect 14 0 12 1;
#X connect 15 0 6 0;
#X restore 300 310 pd vline;
#X obj 330 250 b;
#X obj 340 280 s \$0txt;
#X obj 370 250 t b f;
#X obj 250 310 1;
#X obj 250 280 b;
#X obj 190 340 outlet~;
#X obj 210 250 unpak a a a f;
#X obj 120 210 route rest scl list float inst note goto;
#X obj 410 280 s \$0goto;
#X obj 180 20 r \$0goto;
#X obj 40 210 spigot 1;
#X msg 30 310 0;
#X obj 20 110 t;
#X msg 20 240 f1 0;
#X obj 20 80 r rewind;
#X connect 0 0 24 0;
#X connect 0 1 27 0;
#X connect 1 0 22 0;
#X connect 2 0 28 0;
#X connect 2 1 11 0;
#X connect 3 0 10 0;
#X connect 4 0 27 1;
#X connect 5 0 12 0;
#X connect 6 0 0 0;
#X connect 8 0 15 2;
#X connect 8 0 16 2;
#X connect 9 0 1 0;
#X connect 11 0 15 0;
#X connect 12 0 11 0;
#X connect 12 1 15 1;
#X connect 13 0 3 0;
#X connect 14 0 0 0;
#X connect 15 0 14 0;
#X connect 16 0 7 0;
#X connect 17 0 18 0;
#X connect 19 0 18 0;
#X connect 19 1 25 0;
#X connect 20 0 16 0;
#X connect 21 0 20 0;
#X connect 23 0 1 0;
#X connect 23 1 3 1;
#X connect 23 1 21 0;
#X connect 23 2 16 1;
#X connect 23 3 20 1;
#X connect 24 0 3 1;
#X connect 24 1 9 0;
#X connect 24 2 23 0;
#X connect 24 3 23 0;
#X connect 24 4 16 1;
#X connect 24 5 17 0;
#X connect 24 6 19 0;
#X connect 24 7 23 0;
#X connect 26 0 12 0;
#X connect 27 0 2 0;
#X connect 28 0 3 0;
#X connect 29 0 30 0;
#X connect 29 1 11 0;
#X connect 30 0 3 0;
#X connect 31 0 29 0;
