#N canvas 710 570 521 451 14;
#X obj 160 110 textfile;
#X obj 110 320 muse;
#X obj 400 90 b;
#X obj 30 50 t;
#X msg 30 110 0;
#X obj 30 290 ct;
#X floatatom 70 290 0 0 0 0 - - -;
#X obj 180 290 f;
#X obj 180 260 b, f 2;
#X obj 180 320 adsr, f 20;
#X obj 220 290 *;
#X obj 260 290 *;
#X obj 310 290 *;
#X msg 430 250 . \$1;
#X obj 420 220 r ms;
#X obj 100 150 spigot;
#X obj 90 110 r loop;
#X obj 310 20 r goto;
#X obj 90 80 r \$0txt;
#X obj 110 350 zp~;
#X obj 110 410 outlet~;
#X obj 180 410 outlet~;
#X obj 110 380 +~;
#X obj 30 20 bng 15 250 50 0 empty empty empty 17 7 0 10 -1 -262144
-262144;
#N canvas 660 440 451 301 vib 0;
#X obj 230 230 zp~;
#X obj 130 200 osc~;
#X obj 130 230 *~;
#X obj 300 190 *;
#X obj 130 140 @/ 1000;
#X obj 130 110 *;
#X obj 300 110 inlet;
#X obj 130 20 inlet;
#X obj 240 160 inlet;
#X obj 130 260 outlet~;
#X obj 190 110 unpak f f f;
#X msg 140 80 . \$1;
#X obj 330 50 r ms;
#X obj 130 50 route float;
#X msg 360 110 . \$1;
#X obj 130 170 zp~;
#X connect 0 0 2 1;
#X connect 1 0 2 0;
#X connect 2 0 9 0;
#X connect 3 0 0 1;
#X connect 3 0 15 1;
#X connect 4 0 15 0;
#X connect 5 0 4 0;
#X connect 6 0 3 0;
#X connect 7 0 13 0;
#X connect 8 0 0 0;
#X connect 10 0 5 0;
#X connect 10 1 0 0;
#X connect 10 2 3 0;
#X connect 11 0 5 0;
#X connect 12 0 11 0;
#X connect 12 0 14 0;
#X connect 13 0 5 0;
#X connect 13 1 10 0;
#X connect 14 0 3 0;
#X connect 15 0 1 0;
#X restore 370 320 pd vib;
#X obj 440 90 t b a;
#X obj 440 120 s \$0txt;
#X obj 180 220 unpak a a f f f f f f f f f;
#X obj 430 350 *;
#X obj 250 20 inlet;
#N canvas 670 570 351 301 scl 0;
#X obj 70 30 inlet;
#X obj 140 240 outlet;
#X obj 70 60 t b a;
#X obj 70 110 s \$0txt;
#X obj 70 140 r scl;
#X obj 140 110 route default;
#X obj 140 140 array get default;
#X msg 140 60 default;
#X msg 260 180 peek;
#X obj 70 200 route list;
#X obj 70 170 list prepend @ d;
#X obj 260 210 b !;
#X msg 260 240 expl 1;
#X connect 0 0 2 0;
#X connect 2 0 3 0;
#X connect 2 1 5 0;
#X connect 4 0 10 0;
#X connect 5 0 6 0;
#X connect 5 1 1 0;
#X connect 6 0 10 0;
#X connect 7 0 5 0;
#X connect 8 0 1 0;
#X connect 9 0 1 0;
#X connect 10 0 9 0;
#X connect 11 0 12 0;
#X connect 12 0 1 0;
#X restore 110 220 pd scl;
#X obj 30 320 s \$0txt;
#X obj 50 20 r start;
#X obj 160 20 sym \$1;
#X obj 310 47 t b f;
#X msg 260 190 0;
#X obj 50 220 inlet;
#X msg 160 80 read \$3/\$2/\$1.trk cr \, rewind;
#X obj 160 50 pak s 1 .;
#X obj 160 150 route list float rest scl pmt vib note;
#X connect 0 0 39 0;
#X connect 0 1 15 0;
#X connect 1 0 19 0;
#X connect 2 0 26 0;
#X connect 3 0 4 0;
#X connect 3 1 33 0;
#X connect 4 0 5 0;
#X connect 5 0 31 0;
#X connect 5 1 6 0;
#X connect 7 0 9 0;
#X connect 8 0 7 0;
#X connect 9 0 21 0;
#X connect 10 0 9 1;
#X connect 11 0 9 2;
#X connect 12 0 9 4;
#X connect 13 0 12 0;
#X connect 13 0 11 0;
#X connect 13 0 10 0;
#X connect 13 0 28 0;
#X connect 14 0 13 0;
#X connect 15 0 3 0;
#X connect 16 0 15 1;
#X connect 17 0 34 0;
#X connect 18 0 0 0;
#X connect 19 0 22 0;
#X connect 22 0 20 0;
#X connect 23 0 3 0;
#X connect 24 0 22 1;
#X connect 25 0 26 0;
#X connect 25 1 28 0;
#X connect 27 0 1 0;
#X connect 27 1 8 0;
#X connect 27 1 5 1;
#X connect 27 2 7 1;
#X connect 27 3 10 0;
#X connect 27 4 11 0;
#X connect 27 5 9 3;
#X connect 27 6 12 0;
#X connect 27 7 24 0;
#X connect 27 8 24 1;
#X connect 27 9 24 2;
#X connect 27 10 28 0;
#X connect 28 0 19 1;
#X connect 29 0 38 2;
#X connect 30 0 1 0;
#X connect 32 0 3 0;
#X connect 33 0 38 0;
#X connect 34 0 33 0;
#X connect 34 1 38 1;
#X connect 35 0 7 0;
#X connect 36 0 5 0;
#X connect 37 0 0 0;
#X connect 38 0 37 0;
#X connect 39 0 27 0;
#X connect 39 1 27 0;
#X connect 39 2 35 0;
#X connect 39 2 5 1;
#X connect 39 3 30 0;
#X connect 39 4 25 0;
#X connect 39 5 2 0;
#X connect 39 5 24 0;
#X connect 39 6 2 0;
#X connect 39 7 27 0;
