#N canvas 200 300 650 570 14;
#X declare -lib blunt;
#X obj 350 120 tgl 15 0 empty empty empty 17 7 0 10 #000000 #fcfcfc
#fcfcfc 0 1;
#X msg 300 120 0;
#X obj 40 280 pulse~;
#X obj 100 330 *~;
#X obj 310 470 *~;
#X obj 350 470 hsl 128 20 0.001 1 1 0 empty empty empty -2 -8 0 10
#000000 #fcfcfc #fcfcfc 0 1;
#X obj 300 500 dac~;
#X obj 300 150 s met;
#X floatatom 350 500 0 0 0 0 - - - 0;
#X obj 490 150 s ms;
#X obj 90 150 s tempo;
#X obj 420 60 r tempo;
#X obj 490 120 / 1;
#X obj 40 250 inst pulse1;
#X obj 490 40 bng 15 250 50 0 empty empty empty 17 7 0 10 #000000 #fcfcfc
#fcfcfc;
#X obj 230 150 s loop;
#X floatatom 490 90 0 0 0 0 - - - 0;
#X floatatom 530 150 0 0 0 0 - - - 0;
#X obj 490 60 `f 50 !;
#X obj 160 150 s goto;
#N canvas 810 290 550 400 default-scale 0;
#X obj 190 60 array define default 6;
#X obj 90 340 array set default;
#X obj 350 170 b !;
#X obj 350 150 bng 15 250 50 0 empty empty empty 17 7 0 10 #000000
#fcfcfc #fcfcfc;
#X obj 40 340 s scl;
#X floatatom 40 30 0 0 0 0 - - - 0;
#X obj 40 60 / 100;
#X obj 40 310 t a a;
#X obj 40 180 pack f f f;
#X obj 180 100 r scdef;
#X obj 230 200 route scale;
#X msg 350 230 2 4 5 7 9 11;
#X obj 100 60 r maj-min;
#X obj 250 100 r mode;
#X msg 250 130 send >\$1;
#X obj 180 170 muse 0 2 4 5 7 9 11;
#X obj 230 230 list split 1;
#X msg 40 210 . 2 \$1 5 7 \$2 \$3 \, send;
#X obj 40 100 expr 3 + $f1 \; 8 + $f1 \; 10 + $f1;
#X connect 2 0 11 0;
#X connect 3 0 2 0;
#X connect 5 0 6 0;
#X connect 6 0 18 0;
#X connect 7 0 4 0;
#X connect 7 1 1 0;
#X connect 8 0 17 0;
#X connect 9 0 15 0;
#X connect 10 0 16 0;
#X connect 11 0 7 0;
#X connect 12 0 18 0;
#X connect 13 0 14 0;
#X connect 14 0 15 0;
#X connect 15 1 10 0;
#X connect 16 1 7 0;
#X connect 17 0 15 0;
#X connect 18 0 8 0;
#X connect 18 1 8 1;
#X connect 18 2 8 2;
#X restore 160 30 pd default-scale;
#X obj 180 280 pulse~;
#X obj 180 250 inst pulse2;
#X obj 240 330 *~;
#X obj 100 360 *~;
#X obj 140 250 vsl 15 128 0 1 0 0 empty empty empty 0 -9 0 10 #000000
#fcfcfc #fcfcfc 0 1;
#X obj 240 360 *~;
#X obj 280 250 vsl 15 128 0 1 0 0 empty empty empty 0 -9 0 10 #000000
#fcfcfc #fcfcfc 0 1;
#X obj 140 180 tgl 15 0 empty empty empty 17 7 0 10 #000000 #fcfcfc
#fcfcfc 0 1;
#X obj 60 180 loadbang;
#X obj 400 330 *~;
#X obj 400 360 *~;
#X obj 440 250 vsl 15 128 0 1 0 0 empty empty empty 0 -9 0 10 #000000
#fcfcfc #fcfcfc 0 1;
#X obj 310 440 *~ 0.25;
#X obj 320 250 inst triangle;
#X msg 70 60 1;
#X msg 90 90 0.5;
#N canvas 810 510 460 340 metro 0;
#X obj 30 100 metro;
#X obj 30 60 inlet;
#X obj 80 60 inlet;
#X obj 30 160 outlet;
#X obj 30 130 t;
#X obj 90 230 textfile;
#X obj 270 100 loadbang;
#X obj 90 160 ct;
#X obj 90 290 s goto;
#X msg 180 130 read mario/main.trk cr \, rewind;
#X obj 40 230 b;
#X msg 200 160 read mario/\$1.trk cr \, rewind;
#X obj 280 230 t b a;
#X obj 280 260 symbol;
#X obj 90 260 route goto stop float;
#X obj 150 290 s stop;
#X obj 90 190 spigot 1;
#X obj 160 30 r repeat;
#X obj 140 60 !, f 1;
#X obj 140 30 tgl 15 0 empty empty empty 17 7 0 10 #000000 #fcfcfc
#fcfcfc 0 1;
#X msg 90 130 set 0;
#X obj 90 100 t;
#X obj 40 30 r rewind;
#X obj 180 100 spigot 1;
#X connect 0 0 4 0;
#X connect 1 0 0 0;
#X connect 2 0 0 1;
#X connect 4 0 3 0;
#X connect 4 1 7 0;
#X connect 5 0 14 0;
#X connect 6 0 9 0;
#X connect 7 0 16 0;
#X connect 9 0 5 0;
#X connect 10 0 5 0;
#X connect 11 0 5 0;
#X connect 12 0 5 0;
#X connect 12 1 13 0;
#X connect 13 0 11 0;
#X connect 14 0 8 0;
#X connect 14 0 10 0;
#X connect 14 1 15 0;
#X connect 14 2 7 1;
#X connect 14 3 12 0;
#X connect 16 0 5 0;
#X connect 17 0 18 0;
#X connect 18 0 16 1;
#X connect 18 0 23 1;
#X connect 19 0 18 0;
#X connect 20 0 7 0;
#X connect 21 0 20 0;
#X connect 21 1 23 0;
#X connect 22 0 21 0;
#X connect 23 0 9 0;
#X restore 350 150 pd metro;
#X obj 160 90 cupqb 1;
#X obj 530 330 *~;
#X obj 530 360 *~;
#X obj 580 250 vsl 15 128 0 1 0 0 empty empty empty 0 -9 0 10 #000000
#fcfcfc #fcfcfc 0 1;
#X obj 480 250 inst noise;
#N canvas 290 500 450 300 crush 0;
#X obj 220 100 phasor~;
#X obj 150 140 samphold~;
#X obj 150 100 noise~;
#X obj 150 170 outlet~;
#X obj 220 70 inlet~;
#X connect 0 0 1 1;
#X connect 1 0 3 0;
#X connect 2 0 1 0;
#X connect 4 0 0 0;
#X restore 480 280 pd crush;
#X obj 310 30 r \$0play;
#X obj 380 440 r \$0vol;
#X obj 170 330 r phase;
#X msg 420 90 . \$1;
#X obj 390 30 r pause;
#X obj 390 60 !, f 1;
#X obj 100 390 r pulse1;
#X obj 240 390 r pulse2;
#X obj 400 390 r triangle;
#X obj 530 390 r noise;
#N canvas 790 250 450 300 preload 0;
#X obj 40 90 until;
#X obj 40 120 f;
#X obj 110 120 + 1;
#X obj 70 60 sel;
#X obj 160 150 pack s f;
#X obj 160 90 t b f;
#X obj 160 210 textfile;
#X obj 110 150 mod 5;
#X msg 160 120 pulse1 \, pulse2 \, triangle \, noise;
#X msg 160 180 read mario/\$2/\$1.trk;
#X obj 40 30 loadbang;
#X connect 0 0 1 0;
#X connect 1 0 2 0;
#X connect 2 0 5 0;
#X connect 2 0 7 0;
#X connect 3 0 0 1;
#X connect 4 0 9 0;
#X connect 5 0 8 0;
#X connect 5 1 4 1;
#X connect 7 0 3 0;
#X connect 7 0 1 1;
#X connect 8 0 4 0;
#X connect 9 0 6 0;
#X connect 10 0 0 0;
#X restore 60 470 pd preload;
#X obj 60 500 declare -lib blunt;
#X obj 230 130 tgl 15 0 empty empty empty 17 7 0 10 #000000 #fcfcfc
#fcfcfc 0 1;
#X msg 110 120 0.25;
#X obj 470 180 sym mario !;
#X obj 230 100 s rewind;
#X msg 350 60 0;
#X obj 230 60 r stop;
#X obj 290 60 t;
#N canvas 290 500 570 300 tri-tab 0;
#X obj 220 90 outlet~;
#X obj 220 30 inlet~;
#X obj 40 230 array define \$0tri 35;
#X obj 40 200 array set \$0tri 1;
#X obj 40 100 loadbang;
#X msg 40 130 0 0.125 0.25 0.375 0.5 0.625 0.75 0.875 1 0.875 0.75
0.625 0.5 0.375 0.25 0.125 0 -0.125 -0.25 -0.375 -0.5 -0.625 -0.75
-0.875 -1 -0.875 -0.75 -0.625 -0.5 -0.375 -0.25 -0.125 0;
#X obj 220 60 tabosc2~ \$0tri -0.6;
#X connect 1 0 6 0;
#X connect 4 0 5 0;
#X connect 5 0 3 0;
#X connect 6 0 0 0;
#X restore 320 280 pd tri-tab;
#X connect 0 0 37 0;
#X connect 1 0 7 0;
#X connect 2 0 3 0;
#X connect 3 0 24 0;
#X connect 4 0 6 0;
#X connect 4 0 6 1;
#X connect 5 0 4 1;
#X connect 5 0 8 0;
#X connect 11 0 47 0;
#X connect 12 0 9 0;
#X connect 12 0 17 0;
#X connect 12 0 37 1;
#X connect 13 0 2 0;
#X connect 13 1 3 1;
#X connect 14 0 18 0;
#X connect 16 0 12 0;
#X connect 18 0 16 0;
#X connect 21 0 23 0;
#X connect 22 0 21 0;
#X connect 22 1 23 1;
#X connect 23 0 26 0;
#X connect 24 0 33 0;
#X connect 25 0 24 1;
#X connect 26 0 33 0;
#X connect 27 0 26 1;
#X connect 28 0 27 0;
#X connect 28 0 25 0;
#X connect 28 0 32 0;
#X connect 28 0 41 0;
#X connect 29 0 28 0;
#X connect 30 0 31 0;
#X connect 31 0 33 0;
#X connect 32 0 31 1;
#X connect 33 0 4 0;
#X connect 34 0 63 0;
#X connect 34 1 30 1;
#X connect 35 0 10 0;
#X connect 36 0 10 0;
#X connect 37 0 13 0;
#X connect 37 0 42 0;
#X connect 37 0 34 0;
#X connect 37 0 22 0;
#X connect 38 0 19 0;
#X connect 39 0 40 0;
#X connect 40 0 33 0;
#X connect 41 0 40 1;
#X connect 42 0 43 0;
#X connect 42 1 39 1;
#X connect 43 0 39 0;
#X connect 44 0 0 0;
#X connect 45 0 4 1;
#X connect 46 0 2 1;
#X connect 46 0 21 1;
#X connect 47 0 12 0;
#X connect 48 0 49 0;
#X connect 49 0 0 0;
#X connect 50 0 24 1;
#X connect 51 0 26 1;
#X connect 52 0 31 1;
#X connect 53 0 40 1;
#X connect 56 0 15 0;
#X connect 57 0 10 0;
#X connect 58 0 13 1;
#X connect 58 0 42 1;
#X connect 58 0 34 1;
#X connect 58 0 22 1;
#X connect 60 0 0 0;
#X connect 61 0 62 0;
#X connect 62 0 59 0;
#X connect 62 1 60 0;
#X connect 63 0 30 0;
