#N canvas 190 490 621 491 14;
#X obj 340 110 tgl 15 0 empty empty empty 17 7 0 10 -1 -262144 -262144
0 1;
#X msg 290 110 0;
#X obj 30 270 pulse~;
#X obj 90 320 *~;
#X obj 300 420 *~;
#X obj 340 420 hsl 128 20 0 1 0 0 empty empty empty -2 -8 0 10 -1 -262144
-262144 0 1;
#X obj 290 450 dac~;
#X obj 290 140 s met;
#X floatatom 340 450 0 0 0 0 - - -;
#X obj 480 140 s ms;
#X obj 80 140 s tempo;
#X obj 410 50 r tempo;
#X obj 480 110 / 1;
#X obj 30 240 inst pulse1;
#X obj 480 30 bng 15 250 50 0 empty empty empty 17 7 0 10 -1 -262144
-262144;
#X obj 220 140 s loop;
#X obj 220 110 `f 1!;
#X floatatom 480 80 0 0 0 0 - - -;
#X floatatom 520 140 0 0 0 0 - - -;
#X obj 480 50 `f 50!;
#X obj 150 140 s goto;
#N canvas 130 140 451 371 default-scale 0;
#X obj 240 300 array define default;
#X obj 90 300 array set default;
#X obj 250 130 b !;
#X obj 250 160 t;
#X obj 250 110 bng 15 250 50 0 empty empty empty 17 7 0 10 -1 -262144
-262144;
#X obj 40 300 s scl;
#X floatatom 60 40 0 0 0 0 - - -;
#X obj 40 70 / 100;
#X obj 210 20 tgl 15 0 empty empty empty 17 7 0 10 -1 -262144 -262144
0 1;
#X obj 210 40 metro 1000;
#X floatatom 310 40 0 0 0 0 - - -;
#X floatatom 210 100 0 0 0 0 - - -;
#X msg 240 270 resize 7;
#X msg 220 220 2 3 5 7 8 10 17;
#X msg 220 190 2 4 5 7 9 11 16;
#X obj 40 260 t a a;
#X obj 210 70 rind 0 0.05;
#X floatatom 320 70 0 0 0 0 - - -;
#X floatatom 350 100 0 0 0 0 - - -;
#X obj 40 180 pack f f f f;
#X msg 40 210 2 \$1 5 7 \$2 \$3 \$4;
#X obj 100 60 r scale;
#X obj 40 100 expr 4 + $f1 \; 9 + $f1 \; 11 + $f1 \; 16 - $f1;
#X connect 2 0 3 0;
#X connect 3 0 14 0;
#X connect 3 1 12 0;
#X connect 4 0 2 0;
#X connect 6 0 7 0;
#X connect 7 0 22 0;
#X connect 8 0 9 0;
#X connect 9 0 16 0;
#X connect 10 0 9 1;
#X connect 12 0 0 0;
#X connect 13 0 15 0;
#X connect 14 0 15 0;
#X connect 15 0 5 0;
#X connect 15 1 1 0;
#X connect 16 0 11 0;
#X connect 16 0 22 0;
#X connect 17 0 16 2;
#X connect 18 0 16 1;
#X connect 19 0 20 0;
#X connect 20 0 15 0;
#X connect 21 0 22 0;
#X connect 22 0 19 0;
#X connect 22 1 19 1;
#X connect 22 2 19 2;
#X connect 22 3 19 3;
#X restore 150 30 pd default-scale;
#X obj 170 270 pulse~;
#X obj 170 240 inst pulse2;
#X obj 230 320 *~;
#X obj 500 170 bng 15 250 50 0 empty empty empty 17 7 0 10 -1 -262144
-262144;
#X obj 220 60 bng 15 250 50 0 empty empty empty 17 7 0 10 -1 -262144
-262144;
#X obj 270 60 bng 15 250 50 0 empty empty empty 17 7 0 10 -1 -262144
-262144;
#X obj 270 80 s start;
#X obj 90 350 *~;
#X obj 130 240 vsl 15 128 0 1 0 0 empty empty empty 0 -9 0 10 -1 -262144
-262144 12700 1;
#X obj 230 350 *~;
#X obj 270 240 vsl 15 128 0 1 0 0 empty empty empty 0 -9 0 10 -1 -262144
-262144 12700 1;
#X msg 80 40 1;
#X obj 130 180 tgl 15 0 empty empty empty 17 7 0 10 -1 -262144 -262144
1 1;
#X obj 40 150 b !;
#X obj 390 330 *~;
#X obj 390 360 *~;
#X obj 430 240 vsl 15 128 0 1 0 0 empty empty empty 0 -9 0 10 -1 -262144
-262144 12700 1;
#X obj 300 390 *~ 0.25;
#X obj 310 300 triangle~;
#X obj 310 240 inst triangle;
#X obj 310 270 phasor~;
#X msg 41 80 1;
#X msg 80 80 0.5;
#N canvas 640 570 451 301 metro 0;
#X obj 30 70 metro;
#X obj 30 30 inlet;
#X obj 160 30 inlet;
#X obj 30 130 outlet;
#X obj 30 100 t;
#X obj 90 180 textfile;
#X obj 180 70 b !;
#X obj 90 130 ct;
#X obj 90 240 s goto;
#X msg 180 100 read mario/main.trk cr \, rewind;
#X floatatom 40 210 0 0 0 0 - - -;
#X floatatom 130 120 0 0 0 0 - - -;
#X obj 40 180 b;
#X msg 200 130 read mario/\$1.trk cr \, rewind;
#X obj 280 180 t b a;
#X obj 280 210 symbol;
#X obj 90 210 route goto stop float;
#X obj 150 240 s stop;
#X connect 0 0 4 0;
#X connect 1 0 0 0;
#X connect 2 0 0 1;
#X connect 4 0 3 0;
#X connect 4 1 7 0;
#X connect 5 0 16 0;
#X connect 6 0 9 0;
#X connect 7 0 5 0;
#X connect 7 1 11 0;
#X connect 9 0 5 0;
#X connect 12 0 5 0;
#X connect 13 0 5 0;
#X connect 14 0 5 0;
#X connect 14 1 15 0;
#X connect 15 0 13 0;
#X connect 16 0 8 0;
#X connect 16 0 10 0;
#X connect 16 0 12 0;
#X connect 16 1 17 0;
#X connect 16 2 7 1;
#X connect 16 3 14 0;
#X restore 340 140 pd metro;
#X obj 470 190 sym mario;
#X obj 150 80 cupqb 1;
#X obj 340 80 r stop;
#X msg 330 50 1;
#X obj 520 330 *~;
#X obj 520 360 *~;
#X obj 570 240 vsl 15 128 0 1 0 0 empty empty empty 0 -9 0 10 -1 -262144
-262144 12700 1;
#X obj 470 240 inst noise;
#N canvas 700 490 451 301 crush 0;
#X obj 220 50 inlet~;
#X obj 220 80 phasor~;
#X obj 150 140 samphold~;
#X obj 150 80 noise~;
#X obj 150 170 outlet~;
#X connect 0 0 1 0;
#X connect 1 0 2 1;
#X connect 2 0 4 0;
#X connect 3 0 2 0;
#X restore 470 260 pd crush;
#X obj 300 20 r \$0play;
#X obj 370 390 r \$0vol;
#X obj 160 320 r phase;
#X msg 410 80 . \$1;
#X connect 0 0 45 0;
#X connect 1 0 7 0;
#X connect 2 0 3 0;
#X connect 3 0 29 0;
#X connect 4 0 6 0;
#X connect 4 0 6 1;
#X connect 5 0 4 1;
#X connect 5 0 8 0;
#X connect 11 0 58 0;
#X connect 12 0 9 0;
#X connect 12 0 18 0;
#X connect 12 0 45 1;
#X connect 13 0 2 0;
#X connect 13 1 3 1;
#X connect 14 0 19 0;
#X connect 16 0 15 0;
#X connect 17 0 12 0;
#X connect 19 0 17 0;
#X connect 22 0 24 0;
#X connect 23 0 22 0;
#X connect 23 1 24 1;
#X connect 24 0 31 0;
#X connect 25 0 46 0;
#X connect 26 0 16 0;
#X connect 27 0 28 0;
#X connect 27 0 49 0;
#X connect 29 0 39 0;
#X connect 30 0 29 1;
#X connect 31 0 39 0;
#X connect 32 0 31 1;
#X connect 33 0 47 1;
#X connect 34 0 32 0;
#X connect 34 0 30 0;
#X connect 34 0 38 0;
#X connect 34 0 52 0;
#X connect 35 0 34 0;
#X connect 35 0 46 0;
#X connect 36 0 37 0;
#X connect 37 0 39 0;
#X connect 38 0 37 1;
#X connect 39 0 4 0;
#X connect 40 0 36 0;
#X connect 41 0 42 0;
#X connect 41 1 36 1;
#X connect 42 0 40 0;
#X connect 43 0 10 0;
#X connect 44 0 10 0;
#X connect 45 0 41 0;
#X connect 45 0 23 0;
#X connect 45 0 13 0;
#X connect 45 0 53 0;
#X connect 46 0 41 1;
#X connect 46 0 23 1;
#X connect 46 0 13 1;
#X connect 46 0 53 1;
#X connect 47 0 20 0;
#X connect 47 0 28 0;
#X connect 48 0 0 0;
#X connect 49 0 0 0;
#X connect 50 0 51 0;
#X connect 51 0 39 0;
#X connect 52 0 51 1;
#X connect 53 0 54 0;
#X connect 53 1 50 1;
#X connect 54 0 50 0;
#X connect 55 0 0 0;
#X connect 56 0 4 1;
#X connect 57 0 2 1;
#X connect 57 0 22 1;
#X connect 58 0 12 0;
