#N canvas 20 530 360 336 14;
#X obj 40 210 *~;
#X obj 40 270 dac~;
#X obj 130 180 noise~;
#X obj 40 240 *~;
#X floatatom 180 270 0 0 0 0 - - - 0;
#X obj 130 210 hsl 128 20 0.001 1 1 0 empty empty volume 35 10 0 12
#2f004d #fcfcfc #fcfcfc 0 1;
#N canvas 970 490 450 300 vol 0;
#X obj 160 190 zp~ 15;
#X msg 160 120 0;
#X obj 160 60 inlet;
#X obj 160 220 outlet~;
#X obj 230 190 outlet;
#X obj 160 150 f;
#X obj 160 90 moses 0.00101;
#X connect 0 0 3 0;
#X connect 1 0 5 0;
#X connect 2 0 6 0;
#X connect 5 0 0 0;
#X connect 5 0 4 0;
#X connect 6 0 1 0;
#X connect 6 1 5 0;
#X restore 130 240 pd vol;
#X obj 40 120 metro 1000;
#X obj 40 50 tgl 15 0 empty empty empty 17 7 0 10 #000000 #fcfcfc #fcfcfc
0 1;
#X floatatom 160 100 0 0 0 0 - - - 0;
#N canvas 380 530 360 240 velocity 0;
#X obj 60 30 inlet;
#X obj 100 90 mod 4;
#X obj 60 60 f;
#X obj 100 60 + 1;
#X obj 60 180 @/ 1;
#X msg 60 120 1;
#X obj 60 210 outlet;
#X obj 60 90 sel;
#X floatatom 120 210 0 0 0 0 - - - 0;
#X obj 140 30 inlet;
#X obj 100 120 + 1;
#X obj 100 150 * 2;
#X connect 0 0 2 0;
#X connect 1 0 2 1;
#X connect 2 0 3 0;
#X connect 2 0 7 0;
#X connect 3 0 1 0;
#X connect 4 0 6 0;
#X connect 4 0 8 0;
#X connect 5 0 4 0;
#X connect 7 0 5 0;
#X connect 7 1 10 0;
#X connect 9 0 1 1;
#X connect 10 0 11 0;
#X connect 11 0 4 0;
#X restore 40 150 pd velocity;
#X msg 160 70 750;
#X msg 240 70 1000;
#X msg 60 70 \; pd dsp \$1;
#X obj 40 180 ad 1.5 15;
#X msg 200 70 875;
#X obj 220 240 r \$0vol;
#X obj 70 40 r \$0play;
#X obj 160 130 r \$0met;
#X connect 0 0 3 0;
#X connect 2 0 0 1;
#X connect 3 0 1 0;
#X connect 3 0 1 1;
#X connect 5 0 6 0;
#X connect 6 0 3 1;
#X connect 6 1 4 0;
#X connect 7 0 10 0;
#X connect 8 0 7 0;
#X connect 8 0 13 0;
#X connect 9 0 7 1;
#X connect 10 0 14 0;
#X connect 11 0 9 0;
#X connect 12 0 9 0;
#X connect 14 0 0 0;
#X connect 15 0 9 0;
#X connect 16 0 6 0;
#X connect 17 0 8 0;
#X connect 18 0 7 1;
