#N canvas 200 460 460 400 14;
#X declare -path pd;
#X obj 40 270 *~;
#X obj 40 340 dac~;
#X obj 110 240 noise~;
#X obj 40 300 *~;
#X floatatom 160 330 0 0 0 0 - - - 0;
#X obj 110 270 hsl 128 20 0.001 1 1 0 empty empty volume 35 10 0 12 #2f004d #fcfcfc #fcfcfc 0 1;
#N canvas 970 490 450 300 vol 0;
#X obj 150 180 zp~ 15;
#X msg 150 110 0;
#X obj 150 50 inlet;
#X obj 150 210 outlet~;
#X obj 210 180 outlet;
#X obj 150 140 f;
#X obj 150 80 moses 0.00101;
#X obj 190 140 r \$0vol;
#X connect 0 0 3 0;
#X connect 1 0 5 0;
#X connect 2 0 6 0;
#X connect 5 0 0 0;
#X connect 5 0 4 0;
#X connect 6 0 1 0;
#X connect 6 1 5 0;
#X connect 7 0 0 0;
#X restore 110 300 pd vol;
#X floatatom 40 100 0 0 0 0 - - - 0;
#N canvas 560 520 360 350 velocity 0;
#X obj 30 20 inlet;
#X obj 30 80 mod 4;
#X obj 30 50 f;
#X obj 70 50 + 1;
#X obj 30 300 outlet;
#X obj 130 50 inlet;
#X obj 30 110 t f f;
#X obj 30 240 *;
#X obj 220 50 inlet;
#X obj 30 270 @/ 1;
#X floatatom 90 300 0 0 0 0 - - - 0;
#X obj 230 110 % 4;
#X obj 230 140 sel;
#X obj 30 140 sel;
#X obj 30 200 unpack;
#X obj 80 270 outlet;
#X obj 100 200 pack;
#X obj 230 200 unpack;
#X obj 100 170 sly 1.25 2.5 4;
#X msg 280 170 12 3.5;
#X msg 230 170 24 1;
#X msg 30 170 1 72;
#X obj 90 20 inlet;
#X connect 0 0 2 0;
#X connect 1 0 3 0;
#X connect 1 0 6 0;
#X connect 2 0 1 0;
#X connect 3 0 2 1;
#X connect 5 0 1 1;
#X connect 5 0 18 3;
#X connect 6 0 13 0;
#X connect 6 1 11 0;
#X connect 7 0 9 0;
#X connect 8 0 11 1;
#X connect 9 0 4 0;
#X connect 9 0 10 0;
#X connect 11 0 12 0;
#X connect 12 0 20 0;
#X connect 12 1 19 0;
#X connect 13 0 21 0;
#X connect 13 1 18 0;
#X connect 14 0 7 0;
#X connect 14 1 15 0;
#X connect 16 0 14 0;
#X connect 17 0 16 1;
#X connect 17 1 7 1;
#X connect 18 0 16 0;
#X connect 19 0 17 0;
#X connect 20 0 17 0;
#X connect 21 0 14 0;
#X connect 22 0 2 1;
#X restore 40 200 pd velocity;
#X msg 40 70 750;
#X msg 120 70 1000;
#X msg 80 70 875;
#X obj 40 140 @/ 1000;
#X msg 340 70 4;
#X msg 300 170 4;
#X floatatom 300 200 0 0 0 0 - - - 0;
#X floatatom 300 100 0 0 0 0 - - - 0;
#X msg 300 70 12;
#X obj 40 240 ad 1.5;
#X obj 110 140 t f f;
#X obj 40 170 metro~;
#X obj 300 270 r \$0play;
#X obj 300 300 pipe 500;
#X obj 150 100 r \$0beat;
#X obj 120 170 r \$0accent1;
#X obj 140 200 r \$0accent2;
#X obj 300 130 s \$0accent1;
#X obj 300 230 s \$0accent2;
#X obj 40 30 declare -path pd;
#X obj 80 100 r \$0met;
#X obj 300 330 s \$0met;
#X connect 0 0 3 0;
#X connect 2 0 0 1;
#X connect 3 0 1 0;
#X connect 3 0 1 1;
#X connect 5 0 6 0;
#X connect 6 0 3 1;
#X connect 6 1 4 0;
#X connect 7 0 12 0;
#X connect 8 0 18 0;
#X connect 8 1 18 2;
#X connect 9 0 7 0;
#X connect 10 0 7 0;
#X connect 11 0 7 0;
#X connect 12 0 20 0;
#X connect 13 0 16 0;
#X connect 14 0 15 0;
#X connect 15 0 27 0;
#X connect 16 0 26 0;
#X connect 17 0 16 0;
#X connect 18 0 0 0;
#X connect 19 0 20 1;
#X connect 19 1 8 1;
#X connect 20 0 8 0;
#X connect 21 0 22 0;
#X connect 22 0 30 0;
#X connect 23 0 19 0;
#X connect 24 0 8 2;
#X connect 25 0 8 3;
#X connect 29 0 12 0;
